<svg width="1487" height="1024" viewBox="0 0 1487 1024" fill="none" xmlns="http://www.w3.org/2000/svg">
<g clip-path="url(#clip0_1_10)">
<rect width="1487" height="1024" fill="white"/>
<path d="M1487 0H0V1024H1487V0Z" fill="#2941AB"/>
<path d="M1419.9 214C1519.8 214 1600.79 147.29 1600.79 65C1600.79 -17.2904 1519.8 -84 1419.9 -84C1319.99 -84 1239 -17.2904 1239 65C1239 147.29 1319.99 214 1419.9 214Z" fill="#1ED760" fill-opacity="0.85"/>
<path d="M35.801 1112C115.772 1112 180.602 1059.17 180.602 994C180.602 928.83 115.772 876 35.801 876C-44.1704 876 -109 928.83 -109 994C-109 1059.17 -44.1704 1112 35.801 1112Z" fill="#1ED760"/>
<path d="M1238.5 906C1284.06 906 1321 871.302 1321 828.5C1321 785.698 1284.06 751 1238.5 751C1192.94 751 1156 785.698 1156 828.5C1156 871.302 1192.94 906 1238.5 906Z" fill="#1ED760"/>
<path d="M575.5 960C591.24 960 604 947.912 604 933C604 918.088 591.24 906 575.5 906C559.76 906 547 918.088 547 933C547 947.912 559.76 960 575.5 960Z" fill="#1ED760"/>
<path d="M1349.5 566C1365.24 566 1378 553.912 1378 539C1378 524.088 1365.24 512 1349.5 512C1333.76 512 1321 524.088 1321 539C1321 553.912 1333.76 566 1349.5 566Z" fill="#1ED760"/>
<path d="M96.5 764C104.508 764 111 757.956 111 750.5C111 743.044 104.508 737 96.5 737C88.4919 737 82 743.044 82 750.5C82 757.956 88.4919 764 96.5 764Z" fill="#1ED760"/>
<path d="M420.5 279C439.554 279 455 264.449 455 246.5C455 228.551 439.554 214 420.5 214C401.446 214 386 228.551 386 246.5C386 264.449 401.446 279 420.5 279Z" fill="#1ED760"/>
<path d="M1121 224C1140.33 224 1156 209.225 1156 191C1156 172.775 1140.33 158 1121 158C1101.67 158 1086 172.775 1086 191C1086 209.225 1101.67 224 1121 224Z" fill="#1ED760"/>
<path d="M81.5 158C174.56 158 250 87.0371 250 -0.5C250 -88.0371 174.56 -159 81.5 -159C-11.56 -159 -87 -88.0371 -87 -0.5C-87 87.0371 -11.56 158 81.5 158Z" fill="#1ED760"/>
</g>
<defs>
<clipPath id="clip0_1_10">
<rect width="1487" height="1024" fill="white"/>
</clipPath>
</defs>
</svg>
