<svg width="58" height="58" viewBox="0 0 58 58" fill="none" xmlns="http://www.w3.org/2000/svg">
<path d="M29 0C12.9832 0 0 12.9832 0 29C0 45.0168 12.9832 58 29 58C45.0168 58 58 45.0168 58 29C58 12.9852 45.0168 0.00197885 29 0ZM42.2998 41.8249C41.7794 42.6798 40.6653 42.9469 39.8144 42.4265C33.0052 38.265 24.4328 37.325 14.3387 39.6304C13.3651 39.854 12.3955 39.2445 12.1739 38.2709C11.9503 37.2973 12.5578 36.3277 13.5333 36.106C24.5793 33.583 34.056 34.6694 41.7002 39.3395C42.5511 39.8639 42.8222 40.974 42.2998 41.8249ZM45.8479 33.9313C45.1929 34.9959 43.7998 35.3284 42.7372 34.6753C34.9445 29.8845 23.0595 28.4974 13.8401 31.2955C12.6448 31.6576 11.3823 30.9828 11.0182 29.7896C10.6581 28.5943 11.3329 27.3338 12.5261 26.9697C23.0575 23.7739 36.1516 25.3213 45.1019 30.8225C46.1665 31.4775 46.5029 32.8686 45.8479 33.9313ZM46.1526 25.7072C36.8046 20.1565 21.3854 19.646 12.4608 22.3531C11.0281 22.7884 9.51232 21.9791 9.07895 20.5464C8.64558 19.1137 9.45295 17.5979 10.8876 17.1625C21.1321 14.0538 38.1601 14.6534 48.9211 21.0411C50.2093 21.8069 50.6328 23.4711 49.8689 24.7574C49.1071 26.0476 47.4389 26.473 46.1526 25.7072Z" fill="#2941AB"/>
</svg>
